<svg data-testid="attach" fill="none" height="24" viewBox="0 0 24 24" width="24" xmlns="http://www.w3.org/2000/svg"><g clip-path="url(#clip0_10878_5)"><path d="M12.9997 6.99993L10.9997 6.99993L10.9997 10.9999L6.99972 10.9999L6.99972 12.9999L10.9997 12.9999L10.9997 16.9999L12.9997 16.9999L12.9997 12.9999L16.9997 12.9999L16.9997 10.9999L12.9997 10.9999L12.9997 6.99993ZM11.9997 1.99992C6.47972 1.99992 1.99972 6.47993 1.99972 11.9999C1.99972 17.5199 6.47972 21.9999 11.9997 21.9999C17.5197 21.9999 21.9997 17.5199 21.9997 11.9999C21.9997 6.47993 17.5197 1.99992 11.9997 1.99992ZM11.9997 19.9999C7.58972 19.9999 3.99972 16.4099 3.99972 11.9999C3.99972 7.58993 7.58972 3.99993 11.9997 3.99993C16.4097 3.99993 19.9997 7.58993 19.9997 11.9999C19.9997 16.4099 16.4097 19.9999 11.9997 19.9999Z" fill="rgb(114, 118, 126)"></path></g><defs><clipPath id="clip0_10878_5"><rect fill="white" height="24" width="24"></rect></clipPath></defs></svg>